<?xml version="1.0" encoding="UTF-8"?>
<svg width="100px" height="100px" viewBox="0 0 100 100" version="1.1" xmlns="http://www.w3.org/2000/svg" xmlns:xlink="http://www.w3.org/1999/xlink">
    <!-- Generator: Sketch 47.1 (45422) - http://www.bohemiancoding.com/sketch -->
    <title>Shape</title>
    <desc>Created with Sketch.</desc>
    <defs></defs>
    <g id="Page-1" stroke="none" stroke-width="1" fill="none" fill-rule="evenodd">
        <path d="M83.9745937,13.2928913 C72.9131727,24.9540946 59.6559579,34.3141318 44.9650277,40.8349502 C41.6896798,42.1960875 38.5831274,43.9322369 35.707548,46.0086495 C21.926527,56.1456573 24.3365321,75.0999492 40.6710108,78.6287755 C24.6425645,60.1717707 42.6602213,49.9391308 59.798035,49.2410161 C64.3777472,49.0684883 68.9627319,49.3891066 73.4738573,50.1973376 C75.0231463,61.8262069 69.0842053,75.6641789 57.5888637,81.4690503 C36.5491371,92.1033453 18.1585033,75.3868456 18.5984248,58.6225299 C18.9427112,45.2340291 30.2372191,38.864928 41.4934728,32.1132983 C53.4382995,24.9504503 67.4201542,17.2711887 75.9221164,7.24893953 C53.1465098,-6.5588673 23.5445505,-0.0889036134 8.6068445,21.961728 C-6.33086151,44.0123596 -1.35967658,73.9016689 19.911389,89.930438 C41.1824546,105.959207 71.2851167,102.499725 88.3652663,82.0635279 C105.445416,61.6273303 103.506202,31.3895785 83.9554666,13.3024546 L83.9745937,13.2928913 Z" id="Shape" fill="#3A9667"></path>
    </g>
</svg>