<svg width="100" height="100" viewBox="0 0 100 100" xmlns="http://www.w3.org/2000/svg"><path d="M83.975 13.293a121.973 121.973 0 0 1-39.01 27.542 45.905 45.905 0 0 0-9.257 5.174c-13.781 10.137-11.371 29.09 4.963 32.62-16.028-18.457 1.99-28.69 19.127-29.388a63.89 63.89 0 0 1 13.676.956c1.55 11.63-4.39 25.467-15.885 31.272-21.04 10.634-39.43-6.082-38.99-22.846.344-13.389 11.638-19.758 22.894-26.51C53.438 24.95 67.42 17.271 75.923 7.25 53.146-6.56 23.544-.09 8.606 21.962-6.331 44.012-1.36 73.902 19.91 89.93c21.271 16.03 51.374 12.57 68.454-7.866 17.08-20.437 15.141-50.674-4.41-68.762l.02-.01z" fill="#3A9667" fill-rule="evenodd"/></svg>